<?xml version="1.0" encoding="UTF-8"?>
<!DOCTYPE svg PUBLIC "-//W3C//DTD SVG 1.1//EN" "http://www.w3.org/Graphics/SVG/1.1/DTD/svg11.dtd">
<!-- Creator: CorelDRAW X5 -->
<svg xmlns="http://www.w3.org/2000/svg" xml:space="preserve" width="300.961mm" height="220.017mm" style="shape-rendering:geometricPrecision; text-rendering:geometricPrecision; image-rendering:optimizeQuality; fill-rule:evenodd; clip-rule:evenodd"
viewBox="0 0 30096 22002"
 xmlns:xlink="http://www.w3.org/1999/xlink">
 <defs>
  <style type="text/css">
   <![CDATA[
    .str2 {stroke:#0C5B2F;stroke-width:7.62}
    .str1 {stroke:#1C4513;stroke-width:7.62}
    .str0 {stroke:#542908;stroke-width:7.62}
    .fil5 {fill:#03602B;fill-rule:nonzero}
    .fil6 {fill:#0C5B2F;fill-rule:nonzero}
    .fil3 {fill:#1C4513;fill-rule:nonzero}
    .fil2 {fill:#40230D;fill-rule:nonzero}
    .fil1 {fill:#542908;fill-rule:nonzero}
    .fil4 {fill:#82A81B;fill-rule:nonzero}
    .fil7 {fill:#9ECF18;fill-rule:nonzero}
    .fil0 {fill:#F5F7BC;fill-rule:nonzero}
   ]]>
  </style>
 </defs>
 <g id="__x0023_Layer_x0020_1">
  <metadata id="CorelCorpID_0Corel-Layer"/>
  <g id="_236621248">
   <path class="fil0" d="M14047 14147c0,0 -6976,-41 -7477,-41 -501,0 -1734,0 -1734,0 0,0 515,393 569,786 54,393 244,623 447,786 203,163 366,406 339,664 -27,257 27,339 190,312 163,-27 325,81 379,271 54,190 230,284 488,339 257,54 501,176 542,393 41,217 95,339 447,257 352,-81 555,-176 555,-176 0,0 163,772 488,921 325,149 799,-149 1124,14 325,163 488,244 718,244 230,0 298,122 420,217 122,95 528,244 826,-81 298,-325 366,-352 840,-257 474,95 759,325 989,81 230,-244 284,-528 542,-393 257,135 379,95 596,-81 217,-176 312,-257 515,-176 203,81 447,244 867,0 420,-244 433,-271 623,-312 190,-41 501,-433 691,-420 190,14 339,68 488,-190 149,-257 312,-474 312,-623 0,-149 -1111,-1233 -1111,-1233l-2547 -935 -1124 -366z"/>
  </g>
  <path class="fil1" d="M10042 17250c652,279 1397,389 2165,389 2511,0 5254,-1175 5700,-1426l-160 -283c-564,318 -4913,2163 -7577,1022 -1956,-838 -2743,-2232 -3005,-2842 -139,-1 -258,-1 -354,-2 220,582 1005,2188 3231,3142z"/>
  <path class="fil1" d="M12231 17022c65,0 130,-1 197,-4l-12 -325c-2601,97 -3993,-1845 -4424,-2581 -131,-1 -256,-1 -374,-2 322,601 1749,2911 4613,2911z"/>
  <path class="fil1 str0" d="M12765 16626l19 -325c-2512,-145 -3651,-1568 -4030,-2184 -129,-1 -255,-1 -376,-2 289,537 1474,2343 4388,2511z"/>
  <path class="fil1" d="M13217 16110l35 -323c-2156,-236 -3278,-1169 -3732,-1666 -145,-1 -288,-1 -429,-2 327,437 1488,1702 4126,1991z"/>
  <path class="fil1" d="M13606 15537c103,0 208,-3 315,-8l-17 -325c-1692,90 -2892,-624 -3476,-1077 -170,-1 -339,-2 -508,-3 404,383 1678,1413 3687,1413z"/>
  <path class="fil1 str0" d="M13922 15089c80,0 162,-2 244,-7l-20 -324c-999,60 -1888,-308 -2454,-623 -203,-1 -412,-2 -625,-4 452,316 1533,959 2855,959z"/>
  <path class="fil2" d="M18355 16382c-650,68 -772,366 -1409,650 -637,284 -623,298 -1612,379 -989,81 -1219,515 -2519,596 -1300,81 -3170,-352 -4551,-1463 -1169,-940 -1572,-2103 -1668,-2438 -9,0 -18,0 -25,0 -501,0 -1734,0 -1734,0 0,0 515,393 569,786 54,393 244,623 447,786 203,163 366,406 339,664 -27,257 27,339 190,312 163,-27 325,81 379,271 54,190 230,284 488,339 257,54 501,176 542,393 41,217 95,339 447,257 352,-81 555,-176 555,-176 0,0 163,772 488,921 325,149 799,-149 1124,14 325,163 488,244 718,244 230,0 298,122 420,217 122,95 528,244 826,-81 298,-325 366,-352 840,-257 474,95 759,325 989,81 230,-244 284,-528 542,-393 257,135 379,95 596,-81 217,-176 312,-257 515,-176 203,81 447,244 867,0 420,-244 433,-271 623,-312 190,-41 501,-433 691,-420 190,14 339,68 488,-190 149,-257 312,-474 312,-623 0,-43 -93,-165 -226,-316 -79,2 -162,8 -248,18z"/>
  <path class="fil0" d="M16784 8485l-984 664c0,0 -5883,27 -7753,27 -1869,0 -2470,-54 -2921,-81l0 -90c0,0 219,-18 321,-45 102,-27 154,-122 154,-239 0,-117 -38,-181 -38,-181l156 -34 -210 -54c0,0 88,-156 203,-257 115,-102 190,-169 190,-169 0,0 -312,-95 -298,-41 14,54 88,142 88,142l-68 81 -237 -129c0,0 2,-303 309,-501 0,0 126,-1102 1309,-1364 0,0 9,-975 145,-948 135,27 443,63 713,-235 271,-298 515,-632 894,-632 379,0 587,27 957,-181 370,-208 515,-424 605,-542 90,-117 190,-145 596,-27 406,117 506,163 623,280 117,117 352,208 623,-172 271,-379 560,-614 822,-506 262,108 442,153 957,144 515,-9 578,-217 722,-316 144,-99 262,145 379,226 117,81 163,153 415,54 253,-99 196,-36 447,93 251,129 454,298 637,251 183,-47 440,156 535,257 95,102 163,224 359,224 196,0 339,75 549,312 210,237 74,2106 20,2513 -54,406 -1219,1476 -1219,1476z"/>
  <path class="fil2" d="M17982 4496c-210,-237 -352,-312 -549,-312 -196,0 -264,-122 -359,-224 -95,-102 -352,-305 -535,-257 -183,47 -386,-122 -637,-251 -251,-129 -194,-192 -447,-93 -253,99 -298,27 -415,-54 -117,-81 -235,-325 -379,-226 -144,99 -208,307 -722,316 -515,9 -695,-36 -957,-144 -262,-108 -551,126 -822,506 -271,379 -506,289 -623,172 -117,-117 -217,-163 -623,-280 -406,-117 -506,-90 -596,27 -90,117 -235,334 -605,542 -370,208 -578,181 -957,181 -379,0 -623,334 -894,632 -271,298 -578,262 -713,235 -135,-27 -145,948 -145,948 -1183,262 -1309,1364 -1309,1364 -307,199 -309,501 -309,501l237 129 68 -81c0,0 -75,-88 -88,-142 -14,-54 298,41 298,41 0,0 -75,68 -190,169 -115,102 -203,257 -203,257l210 54 -156 34c0,0 38,63 38,181 0,117 -52,212 -154,239 -102,27 -321,45 -321,45l0 90c268,16 588,42 1193,60 12,-83 38,-206 48,-286 14,-104 59,-140 289,-569 230,-429 104,-226 429,-740 325,-515 560,-741 772,-935 212,-194 361,-375 601,-528 239,-154 1156,-777 1472,-921 316,-145 768,-361 1192,-506 424,-144 750,-99 786,54 36,154 614,2059 614,2059l253 27c0,0 -596,-2023 -650,-2176 -54,-154 578,-280 1039,-280 461,0 1743,126 1941,154 199,27 352,90 569,154 217,63 461,153 632,181 172,27 388,271 578,280 190,9 298,63 298,63 0,0 448,16 909,-101 -12,-289 -44,-515 -108,-588z"/>
  <path class="fil1 str0" d="M18074 6119c-707,-510 -1760,-1091 -3044,-1262 -2424,-322 -4162,26 -6001,1203 -1684,1077 -2315,2724 -2441,3103 107,2 221,5 344,7 178,-475 809,-1899 2273,-2835 1768,-1131 3443,-1465 5783,-1154 1312,174 2388,820 3062,1332 9,-121 18,-254 25,-392z"/>
  <path class="fil1 str0" d="M11229 5741c-2415,642 -3618,2947 -3847,3433 115,1 236,2 364,2 336,-646 1493,-2570 3567,-3120 2375,-631 4980,-137 6567,1226 68,-105 114,-200 123,-272 2,-13 3,-27 5,-43 -1673,-1377 -4345,-1871 -6779,-1225z"/>
  <path class="fil1" d="M17252 7117c-2184,-1442 -4412,-1642 -6620,-594 -1820,864 -2451,2193 -2621,2653 12,0 24,0 36,0 95,0 202,0 316,0 212,-492 844,-1616 2408,-2359 2099,-996 4219,-804 6302,571l179 -271z"/>
  <path class="fil1" d="M11678 6797c-1911,481 -2776,1902 -3018,2378 118,0 243,0 373,-1 308,-530 1131,-1662 2724,-2062 2192,-552 4423,85 5379,1032 71,-72 148,-151 226,-234 -1168,-1164 -3581,-1643 -5684,-1114z"/>
  <path class="fil1" d="M16905 8371c-491,-585 -1756,-1641 -4290,-1265 -1980,294 -2958,1567 -3271,2069 128,0 261,-1 397,-1 384,-529 1295,-1504 2923,-1746 2369,-352 3537,611 3989,1147l132 -89c0,0 47,-43 122,-115z"/>
  <path class="fil1" d="M13005 7632c-1835,150 -2561,1154 -2774,1539 126,0 253,-1 383,-1 272,-395 953,-1094 2418,-1213 1714,-140 2798,396 3235,878l271 -183c-489,-566 -1665,-1171 -3532,-1019z"/>
  <path class="fil1" d="M15915 9071c-351,-423 -983,-874 -2313,-884 -1496,-10 -2328,678 -2622,981 165,-1 331,-1 498,-2 378,-288 1061,-655 2090,-655 11,0 22,0 32,0 1062,8 1618,309 1948,638 162,-1 252,-1 252,-1l116 -78z"/>
  <polygon class="fil3" points="20265,16369 19256,16369 18822,16369 18822,16802 18822,17967 18822,18400 19256,18400 20265,18400 20698,18400 20698,17967 20698,16802 20698,16369 "/>
  <polygon class="fil1" points="20265,16802 19256,16802 19256,17967 20265,17967 "/>
  <path class="fil4" d="M14011 14066l11685 0 2411 3111c0,0 -2122,271 -3206,72 -1084,-199 -2565,-867 -2565,-867 0,0 -1517,704 -2736,668 -1219,-36 -2519,-777 -2519,-777 0,0 -3206,1752 -5662,759l2592 -2966z"/>
  <polygon class="fil5" points="26379,14946 25697,14066 14011,14066 13570,14572 13849,15885 13975,15398 14066,15705 14355,15163 14463,15687 14734,14983 14860,15597 15221,14838 15330,15416 15691,14838 15944,15506 16052,15037 16287,15777 16504,15091 16648,15542 16991,14946 17190,15524 17407,15109 17479,15524 17660,14838 18093,15560 18201,15181 18527,15615 18671,15037 18852,15615 19068,15452 19285,15885 19411,15091 19646,15759 19791,15127 19863,15705 20026,15253 20134,15633 20333,15272 20423,15651 20784,15019 20838,15669 21037,15181 21181,15633 21308,15253 21543,15759 21850,14549 22030,15488 22193,15181 22355,15651 22536,15163 22735,15813 23024,15235 23403,15687 23583,15289 23746,15579 23981,14964 23981,15813 24234,15416 24270,15741 24450,15380 24559,15687 24794,15308 24974,15633 25119,14784 25371,15669 25408,15073 25642,15651 25733,15181 25931,15885 25986,15452 26220,15885 "/>
  <path class="fil3" d="M25697 14066l-658 0 2292 2741c0,0 -1842,190 -2583,-27 -740,-217 -2411,-912 -2411,-912 -1499,795 -2547,777 -2547,777 -1427,0 -2691,-993 -2691,-993 -2637,1725 -4867,1138 -4867,1138l2249 -2723 -470 0 -2592 2966c2456,993 5662,-759 5662,-759 0,0 1300,741 2519,777 1219,36 2736,-668 2736,-668 0,0 1481,668 2565,867 1084,199 3206,-72 3206,-72l-2411 -3111z"/>
  <polygon class="fil6" points="16201,8925 16323,9149 23319,9149 23363,9037 23350,8859 23160,8749 21123,8210 20640,8409 19710,8530 18730,8386 18125,8174 17226,8481 16228,8679 "/>
  <path class="fil4" d="M17328 5472c-3,0 -6,0 -9,0 301,-380 840,-1063 1205,-1546 401,-531 976,-1374 1235,-1758 229,275 501,680 677,1018 252,484 486,732 681,910 80,73 140,161 216,272 93,137 209,306 401,499 193,193 397,514 525,730 -25,1 -51,2 -78,2 -600,0 -1331,-364 -1338,-368l-107 -54 -95 74c-113,88 -480,320 -824,339 -406,24 -919,-356 -924,-360l-84 -62 -97 37c-575,220 -1070,266 -1384,266z"/>
  <path class="fil6" d="M20820 4571l68 -393 95 610 122 -366 95 393 45 -571c-41,-55 -81,-104 -128,-147 -195,-179 -429,-426 -681,-910 -124,-239 -296,-510 -467,-746l-450 84c-290,425 -691,1002 -993,1403 -181,239 -403,526 -619,802l30 316 176 -420 68 379 135 -745 108 461 95 -488 68 501 81 -935 176 840 95 -379 95 488 122 -799 149 975 81 -623 108 596 108 -1070 163 1070 108 -691 81 691 122 -772 135 786 81 -488 54 379 108 -745 163 704 81 -975 122 786z"/>
  <path class="fil4" d="M21162 7993l-84 -39 -82 42c-1024,528 -1521,356 -2048,173l-102 -35c-562,-194 -657,-204 -1644,131 -571,194 -1126,194 -1465,166 211,-239 540,-615 895,-1039 537,-641 1128,-1416 1254,-1581 255,-36 549,-102 868,-216 190,125 660,399 1085,375 397,-23 768,-237 938,-350 189,86 608,258 1046,328 139,235 639,1057 1112,1537 325,330 639,723 829,971 -1245,154 -2586,-457 -2601,-463z"/>
  <path class="fil6" d="M21199 6968l122 691 203 -623 54 664 135 -542 54 447 163 -704 41 948 190 -515 54 461 163 -542 95 501 68 -515 95 610 122 -379 108 528 52 -530c-468,-483 -958,-1288 -1095,-1520 -438,-70 -857,-242 -1046,-328 -170,113 -541,327 -938,350 -425,25 -895,-249 -1085,-375 -319,114 -613,179 -868,216 -86,113 -388,509 -742,953l61 976 230 -935 -14 813 122 -379 41 325 298 -691 0 515 217 -528 0 447 257 -461 27 447 230 -393 122 515 203 -488 135 433 81 -433 81 461 149 -298 108 393 217 -501 27 433 203 -474 68 731 244 -623 -27 582 135 -420 176 393 135 -528 122 447 190 -677 95 637 122 -515z"/>
  <path class="fil6" d="M16676 7339l40 388 149 -569 54 406 177 -742c-137,171 -280,347 -420,516z"/>
  <path class="fil7" d="M21145 6155l81 339 135 -244 81 230 95 -352c0,0 41,284 68,325 27,41 122,-244 122,-244l95 271 130 -318c-56,-91 -101,-166 -130,-215 -438,-70 -857,-242 -1046,-328 -170,113 -541,327 -938,350 -425,25 -895,-249 -1085,-375 -319,114 -613,179 -868,216 -28,36 -79,103 -146,191l20 384 176 -298 108 433 176 -433 0 379 244 -420 95 433 244 -433 163 406 122 -366 81 393 135 -325 135 298 135 -244 81 257 257 -298 135 312 325 -393 54 420 244 -623 27 555 203 -474 108 474 135 -284z"/>
  <path class="fil7" d="M20435 3186c-176,-338 -448,-743 -677,-1018 -160,237 -441,650 -727,1057l0 384 149 -325 54 433 176 -555 81 366 203 -555 81 691 163 -555 81 637 149 -515 135 515 54 -433 122 339 72 -253c-39,-65 -78,-134 -118,-211z"/>
  <path class="fil3" d="M24253 8479c-21,-29 -511,-714 -1048,-1260 -341,-347 -712,-908 -921,-1244 120,-7 231,-27 330,-60l213 -70 -105 -199c-15,-28 -370,-698 -720,-1048 -167,-167 -268,-314 -356,-444 -83,-121 -161,-236 -273,-338 -180,-164 -377,-375 -601,-805 -237,-456 -625,-1008 -901,-1284l-164 -163 -128 192c-8,12 -834,1249 -1357,1941 -525,694 -1415,1809 -1424,1820l-198 248 313 57c7,1 179,32 464,29 -248,321 -656,844 -1036,1298 -595,711 -1119,1289 -1124,1295l-218 241 317 71c40,9 985,215 2008,-132 897,-305 916,-298 1398,-132l102 35c539,187 1149,398 2265,-153 286,121 1232,487 2248,487 267,0 540,-25 806,-87l276 -64 -165 -231zm-6925 -3007l0 0c-3,0 -6,0 -9,0 301,-380 840,-1063 1205,-1546 401,-531 976,-1374 1235,-1758 229,275 501,680 677,1018 252,484 486,732 681,910 80,73 140,161 216,272 93,137 209,306 401,499 193,193 397,514 525,730 -25,1 -51,2 -78,2 -600,0 -1331,-364 -1338,-368l-107 -54 -95 74c-113,88 -480,320 -824,339 -406,24 -919,-356 -924,-360l-84 -62 -97 37c-575,220 -1070,266 -1384,266zm3834 2520l0 0 -84 -39 -82 42c-1024,528 -1521,356 -2048,173l-102 -35c-562,-194 -657,-204 -1644,131 -571,194 -1126,194 -1465,166 211,-239 540,-615 895,-1039 537,-641 1128,-1416 1254,-1581 255,-36 549,-102 868,-216 190,125 660,399 1085,375 397,-23 768,-237 938,-350 189,86 608,258 1046,328 139,235 639,1057 1112,1537 325,330 639,723 829,971 -1245,154 -2586,-457 -2601,-463z"/>
  <path class="fil3" d="M23272 8776l47 372 579 -29c0,0 -44,-283 -207,-459 -163,-176 -420,115 -420,115z"/>
  <path class="fil3" d="M16440 8706c0,0 -90,280 -117,443l-524 0c0,0 144,-397 388,-623 244,-226 253,181 253,181z"/>
  <g id="_236624368">
   <path class="fil3" d="M3749 11099c-36,39 -87,115 -153,228 -24,42 -60,63 -107,63 -55,0 -91,-25 -107,-75 -40,-124 -100,-232 -182,-326 -47,127 -107,251 -180,374 -83,141 -180,256 -293,345 -114,92 -255,139 -425,139 -107,0 -198,-27 -274,-80 -84,-60 -126,-137 -126,-229 0,-81 32,-150 97,-207 64,-57 142,-85 234,-85 32,0 54,3 65,10 11,7 22,21 32,44 24,51 69,77 134,77 68,0 137,-29 208,-87 48,-39 93,-91 133,-154 40,-63 95,-168 165,-315 -48,-20 -94,-30 -136,-30 -37,0 -68,9 -92,26 -24,17 -36,38 -36,63 0,12 5,32 15,59 3,5 4,11 4,17 0,34 -36,51 -107,51 -63,0 -114,-19 -156,-57 -41,-38 -62,-85 -62,-141 0,-86 43,-155 130,-210 70,-44 150,-66 241,-66 97,0 193,25 289,74l113 -306c29,-78 44,-140 44,-185 0,-39 -10,-73 -31,-102 -20,-29 -58,-62 -113,-102 -51,-36 -77,-66 -77,-89 0,-21 11,-39 32,-55 21,-16 46,-23 76,-23 20,0 57,7 109,21 150,40 270,60 360,60 88,0 202,-20 342,-59 55,-15 96,-23 124,-23 68,0 101,24 101,71 0,26 -24,54 -71,83 -92,58 -138,123 -138,194 0,30 10,73 31,128l432 1153c31,78 63,137 99,177 35,40 85,73 150,99 38,15 62,27 73,37 10,10 15,23 15,40 0,45 -50,68 -151,68l-727 0c-77,0 -115,-19 -115,-56 0,-26 22,-49 67,-68 65,-27 98,-61 98,-102 0,-23 -10,-62 -29,-116l-128 -353zm-296 -799l0 0 -164 473c85,84 159,193 222,326 39,-67 92,-139 159,-214l-216 -585z"/>
   <path class="fil3" d="M4829 11426c70,0 130,20 181,60 50,40 76,88 76,145 0,57 -25,106 -76,145 -50,40 -112,60 -185,60 -73,0 -134,-20 -185,-60 -50,-40 -76,-88 -76,-145 0,-57 25,-106 76,-145 50,-40 113,-60 188,-60z"/>
   <path class="fil3" d="M6659 10876c110,60 227,90 352,90 22,0 54,-2 98,-6 15,-2 26,-3 31,-3 22,0 41,6 57,18 17,12 25,26 25,41 0,11 -6,30 -17,56 -11,26 -17,46 -17,60 0,24 11,55 34,93l130 220c65,109 157,181 275,217 57,17 86,41 86,71 0,23 -11,39 -34,48 -23,9 -66,13 -128,13l-788 0c-78,0 -117,-22 -117,-65 0,-25 21,-45 63,-60 65,-22 98,-52 98,-90 0,-51 -38,-135 -115,-253 -77,-117 -164,-226 -262,-326 -105,-105 -172,-184 -201,-235 -45,-76 -67,-146 -67,-208 0,-87 36,-165 107,-234 69,-67 156,-101 260,-101 75,0 140,19 193,56 54,37 80,82 80,134 0,38 -15,70 -45,96 -30,26 -67,39 -112,39 -48,0 -73,-16 -73,-48 0,-14 10,-27 29,-39 20,-12 31,-26 31,-42 0,-15 -10,-29 -30,-41 -20,-13 -42,-19 -68,-19 -47,0 -87,14 -120,42 -33,28 -50,62 -50,101 0,53 26,97 78,132 52,35 118,52 197,52 96,0 178,-24 247,-72 84,-58 126,-134 126,-226 0,-88 -40,-164 -120,-226 -85,-67 -193,-101 -323,-101 -97,0 -185,20 -264,61 -79,41 -138,95 -178,163 -33,60 -50,171 -50,332l0 708c0,128 10,210 31,247 20,37 73,71 159,101 50,17 75,38 75,63 0,40 -36,60 -107,60l-834 0c-71,0 -107,-20 -107,-60 0,-16 6,-28 17,-37 11,-9 40,-21 86,-37 70,-24 114,-56 133,-95 19,-39 28,-121 28,-244l0 -853c0,-67 -11,-117 -33,-148 -22,-32 -60,-54 -115,-66 -59,-13 -88,-37 -88,-71 0,-35 42,-89 126,-161 255,-218 585,-327 989,-327 302,0 549,64 740,191 186,124 279,278 279,463 0,156 -68,283 -205,383 -135,99 -303,148 -505,148 -23,0 -52,-1 -88,-3z"/>
   <path class="fil3" d="M8111 11426c70,0 130,20 181,60 50,40 76,88 76,145 0,57 -25,106 -76,145 -50,40 -112,60 -185,60 -73,0 -134,-20 -185,-60 -50,-40 -76,-88 -76,-145 0,-57 25,-106 76,-145 50,-40 113,-60 188,-60z"/>
   <path class="fil3" d="M9638 11116l235 -705c46,-138 69,-238 69,-300 0,-53 -14,-98 -43,-135 -29,-37 -83,-78 -162,-124 -26,-16 -38,-34 -38,-54 0,-38 26,-57 77,-57 19,0 80,12 182,36 78,19 147,29 208,29 65,0 141,-15 228,-44 46,-16 78,-24 98,-24 24,0 45,6 63,18 18,12 27,26 27,41 0,17 -13,36 -38,56 -55,42 -91,76 -108,102 -17,26 -26,59 -26,99 0,69 17,150 50,241l300 821c48,-100 120,-217 214,-351 84,-117 140,-203 168,-261 28,-57 42,-113 42,-169 0,-52 -15,-95 -45,-130 -30,-34 -68,-51 -114,-51 -65,0 -99,31 -103,92 -1,30 -7,50 -17,60 -10,10 -29,14 -57,14 -55,0 -103,-25 -145,-75 -42,-50 -63,-108 -63,-175 0,-101 44,-188 132,-259 94,-77 213,-116 356,-116 159,0 291,45 394,136 96,82 143,181 143,295 0,95 -30,196 -90,303 -60,107 -159,235 -296,386 -142,154 -237,271 -286,353 -49,81 -74,162 -74,243 0,93 45,173 134,243 36,28 54,53 54,75 0,44 -49,66 -147,66l-629 0c-76,0 -115,-22 -115,-65 0,-24 20,-53 59,-87 50,-42 75,-86 75,-130 0,-33 -13,-86 -40,-158l-251 -669 -241 719c-14,40 -21,79 -21,116 0,42 27,86 80,131 38,32 57,58 57,78 0,24 -11,41 -33,50 -22,10 -62,14 -118,14l-612 0c-79,0 -119,-21 -119,-62 0,-23 24,-57 73,-101 57,-52 86,-100 86,-143 0,-35 -12,-85 -36,-151l-415 -1121c-59,-166 -144,-281 -256,-345 -46,-27 -69,-52 -69,-74 0,-15 8,-29 23,-41 15,-12 32,-18 52,-18 15,0 36,4 63,12 149,47 284,71 404,71 104,0 212,-19 321,-57 52,-18 88,-27 107,-27 23,0 43,7 59,20 17,14 25,29 25,47 0,24 -18,47 -55,69 -56,34 -95,65 -117,93 -22,28 -32,62 -32,101 0,37 10,84 31,139l325 909z"/>
   <path class="fil3" d="M12508 10388l0 934c0,128 10,210 31,247 20,37 74,71 161,101 48,17 73,38 73,63 0,40 -36,60 -107,60l-834 0c-71,0 -107,-20 -107,-60 0,-16 6,-28 17,-37 11,-9 40,-21 86,-37 70,-24 114,-56 133,-95 18,-39 28,-121 28,-244l0 -933c0,-182 -10,-299 -30,-353 -20,-53 -72,-103 -158,-151 -56,-31 -84,-59 -84,-84 0,-15 7,-28 21,-40 14,-12 30,-17 48,-17 13,0 40,6 82,18 138,39 263,59 375,59 126,0 255,-24 386,-72 20,-7 39,-11 55,-11 23,0 42,6 58,18 16,12 24,26 24,42 0,26 -31,56 -92,89 -75,40 -121,86 -138,136 -17,51 -26,173 -29,366z"/>
   <path class="fil3 str1" d="M14622 11794l-1591 0c-71,0 -107,-20 -107,-60 0,-16 6,-28 17,-37 11,-9 40,-21 86,-37 70,-24 114,-56 133,-95 18,-39 28,-121 28,-244l0 -933c0,-182 -10,-299 -30,-353 -20,-53 -72,-103 -158,-151 -56,-31 -84,-59 -84,-84 0,-15 7,-28 21,-40 14,-12 30,-17 48,-17 14,0 41,6 82,18 134,39 257,59 369,59 113,0 253,-24 419,-72 23,-7 42,-11 57,-11 23,0 43,6 59,19 17,13 25,27 25,43 0,16 -6,29 -17,38 -11,9 -43,26 -96,50 -80,37 -130,81 -148,133 -19,51 -28,167 -28,347l0 739c0,112 15,198 46,256 28,51 74,93 139,124 64,32 136,48 215,48 125,0 224,-36 298,-109 78,-75 117,-163 117,-262 0,-68 -23,-142 -69,-222 -19,-34 -29,-59 -29,-75 0,-18 8,-33 25,-46 17,-12 37,-19 61,-19 64,0 129,36 197,109 85,92 128,208 128,347 0,21 -2,66 -6,136 -1,18 -2,33 -2,44 0,48 8,88 24,121 16,32 51,77 104,134 14,16 21,32 21,48 0,24 -11,44 -32,60 -21,16 -47,24 -77,24 -14,0 -34,-3 -61,-9 -43,-10 -105,-16 -186,-18z"/>
   <path class="fil3" d="M16750 11794l-1591 0c-71,0 -107,-20 -107,-60 0,-16 6,-28 17,-37 12,-9 40,-21 86,-37 70,-24 114,-56 133,-95 19,-39 28,-121 28,-244l0 -933c0,-182 -10,-299 -30,-353 -20,-53 -72,-103 -158,-151 -56,-31 -84,-59 -84,-84 0,-15 7,-28 21,-40 14,-12 30,-17 48,-17 14,0 41,6 82,18 134,39 257,59 369,59 113,0 253,-24 419,-72 23,-7 42,-11 57,-11 23,0 43,6 59,19 17,13 25,27 25,43 0,16 -6,29 -17,38 -11,9 -43,26 -95,50 -80,37 -130,81 -148,133 -18,51 -28,167 -28,347l0 739c0,112 15,198 46,256 28,51 74,93 139,124 64,32 136,48 215,48 125,0 224,-36 298,-109 78,-75 117,-163 117,-262 0,-68 -23,-142 -69,-222 -19,-34 -29,-59 -29,-75 0,-18 8,-33 25,-46 17,-12 37,-19 61,-19 64,0 130,36 197,109 86,92 128,208 128,347 0,21 -2,66 -6,136 -1,18 -2,33 -2,44 0,48 8,88 24,121 16,32 51,77 104,134 14,16 21,32 21,48 0,24 -10,44 -32,60 -21,16 -47,24 -77,24 -14,0 -34,-3 -61,-9 -43,-10 -105,-16 -185,-18z"/>
   <path class="fil3" d="M17965 10388l0 934c0,128 10,210 31,247 20,37 74,71 161,101 48,17 73,38 73,63 0,40 -36,60 -107,60l-834 0c-71,0 -107,-20 -107,-60 0,-16 6,-28 17,-37 12,-9 40,-21 86,-37 70,-24 114,-56 133,-95 18,-39 28,-121 28,-244l0 -933c0,-182 -10,-299 -30,-353 -20,-53 -72,-103 -158,-151 -56,-31 -84,-59 -84,-84 0,-15 7,-28 21,-40 14,-12 30,-17 48,-17 13,0 40,6 82,18 138,39 263,59 375,59 126,0 255,-24 386,-72 20,-7 39,-11 55,-11 23,0 42,6 58,18 16,12 24,26 24,42 0,26 -31,56 -92,89 -75,40 -121,86 -138,136 -17,51 -26,173 -29,366z"/>
   <path class="fil3" d="M20124 11099c-36,39 -87,115 -153,228 -24,42 -60,63 -107,63 -55,0 -91,-25 -107,-75 -40,-124 -100,-232 -182,-326 -47,127 -107,251 -180,374 -83,141 -180,256 -293,345 -113,92 -255,139 -425,139 -107,0 -198,-27 -273,-80 -84,-60 -126,-137 -126,-229 0,-81 32,-150 97,-207 64,-57 142,-85 234,-85 32,0 54,3 65,10 11,7 22,21 32,44 24,51 69,77 134,77 68,0 137,-29 208,-87 48,-39 93,-91 133,-154 40,-63 95,-168 165,-315 -48,-20 -94,-30 -136,-30 -37,0 -68,9 -92,26 -24,17 -36,38 -36,63 0,12 5,32 15,59 3,5 4,11 4,17 0,34 -36,51 -107,51 -63,0 -114,-19 -156,-57 -41,-38 -62,-85 -62,-141 0,-86 43,-155 130,-210 70,-44 150,-66 241,-66 97,0 193,25 289,74l113 -306c29,-78 44,-140 44,-185 0,-39 -10,-73 -31,-102 -20,-29 -58,-62 -113,-102 -51,-36 -77,-66 -77,-89 0,-21 11,-39 32,-55 21,-16 46,-23 76,-23 20,0 57,7 109,21 150,40 270,60 360,60 88,0 202,-20 342,-59 55,-15 96,-23 124,-23 68,0 101,24 101,71 0,26 -24,54 -71,83 -92,58 -138,123 -138,194 0,30 10,73 31,128l432 1153c31,78 63,137 98,177 35,40 85,73 150,99 38,15 62,27 73,37 10,10 15,23 15,40 0,45 -50,68 -151,68l-727 0c-77,0 -115,-19 -115,-56 0,-26 22,-49 67,-68 65,-27 97,-61 97,-102 0,-23 -10,-62 -29,-116l-128 -353zm-296 -799l0 0 -164 473c85,84 159,193 222,326 40,-67 93,-139 159,-214l-216 -585z"/>
   <path class="fil3" d="M23220 10294l-520 1414c-15,40 -32,67 -49,81 -17,14 -44,20 -79,20 -33,0 -58,-7 -76,-21 -17,-14 -33,-41 -47,-80l-530 -1414c29,182 44,380 44,595 0,243 -22,442 -67,595 -29,105 -82,191 -157,261 -73,67 -170,101 -293,101 -105,0 -193,-31 -264,-92 -68,-58 -101,-130 -101,-214 0,-88 35,-160 105,-217 47,-38 96,-57 145,-57 14,0 37,9 69,27 27,14 52,21 77,21 71,0 124,-59 158,-176 34,-117 51,-301 51,-552 0,-216 -18,-367 -54,-452 -36,-85 -117,-170 -243,-253 -52,-34 -78,-62 -78,-84 0,-16 7,-30 20,-41 13,-12 30,-17 51,-17 13,0 44,7 94,21 158,45 310,68 455,68 136,0 280,-21 432,-62 61,-17 99,-26 115,-26 20,0 38,6 53,18 15,12 22,26 22,42 0,25 -23,51 -69,78 -71,41 -107,90 -107,148 0,34 10,78 31,131l294 775 285 -775c22,-58 33,-100 33,-127 0,-56 -42,-110 -126,-163 -41,-26 -61,-50 -61,-71 0,-15 8,-28 23,-40 15,-12 34,-17 55,-17 19,0 65,10 138,29 133,34 268,51 405,51 84,0 154,-5 209,-14 55,-10 121,-29 198,-58 20,-7 39,-11 55,-11 23,0 42,6 58,18 16,12 24,26 24,42 0,26 -31,56 -92,89 -75,41 -121,87 -138,137 -17,50 -26,172 -29,365l0 934c0,127 10,209 31,246 20,38 73,72 159,102 50,17 75,38 75,63 0,40 -36,60 -107,60l-834 0c-71,0 -107,-20 -107,-60 0,-16 6,-28 17,-37 11,-9 40,-21 86,-37 70,-24 114,-56 133,-95 19,-39 28,-121 28,-244l0 -1026z"/>
   <path class="fil3" d="M25128 9695c117,0 274,28 469,84 116,34 200,51 250,51 22,0 57,-3 105,-9 12,-1 22,-2 33,-2 25,0 47,7 66,22 19,15 28,33 28,53 0,29 -36,67 -109,113 -122,77 -215,167 -279,270 -33,50 -72,75 -117,75 -43,0 -77,-23 -101,-68 -78,-148 -194,-222 -348,-222 -75,0 -138,19 -189,57 -51,38 -77,84 -77,139 0,59 33,106 100,139 67,34 212,77 435,130 207,50 359,103 457,158 219,124 329,291 329,502 0,191 -97,348 -291,472 -195,124 -445,185 -750,185 -284,0 -528,-50 -733,-149 -93,-45 -166,-103 -220,-173 -54,-70 -80,-145 -80,-223 0,-103 44,-191 132,-264 96,-79 216,-119 362,-119 155,0 291,44 405,133 36,27 66,58 90,93 24,35 36,64 36,88 0,15 -7,29 -21,42 -14,13 -29,20 -46,20 -15,0 -39,-10 -71,-29 -71,-44 -136,-66 -195,-66 -55,0 -100,14 -135,42 -35,28 -53,64 -53,108 0,64 34,120 103,166 101,66 226,99 377,99 161,0 293,-40 396,-119 92,-70 138,-153 138,-249 0,-123 -76,-218 -228,-285 -87,-37 -234,-79 -442,-125 -143,-32 -247,-61 -312,-85 -65,-25 -127,-59 -186,-103 -122,-91 -184,-210 -184,-356 0,-172 83,-314 249,-426 166,-114 367,-172 604,-172z"/>
  </g>
  <g id="_236625256">
   <path class="fil3" d="M8440 13715l-1494 0c-67,0 -101,-15 -101,-46 0,-12 5,-21 16,-28 11,-6 38,-16 81,-28 66,-18 107,-42 125,-72 17,-30 26,-91 26,-185l0 -706c0,-138 -9,-227 -28,-267 -19,-40 -68,-78 -148,-114 -53,-24 -79,-45 -79,-64 0,-11 7,-22 20,-30 13,-9 28,-13 45,-13 13,0 39,4 77,14 126,30 241,45 347,45 107,0 238,-18 393,-55 22,-5 40,-8 54,-8 22,0 40,5 56,14 16,10 23,20 23,32 0,12 -5,22 -16,29 -11,7 -41,20 -90,38 -75,28 -122,62 -139,100 -17,39 -26,126 -26,262l0 559c0,85 14,150 43,194 26,39 70,70 130,94 60,24 128,36 202,36 117,0 211,-27 280,-82 73,-57 110,-123 110,-199 0,-52 -22,-108 -65,-168 -18,-26 -27,-45 -27,-57 0,-14 8,-25 23,-35 16,-9 35,-14 57,-14 60,0 121,27 185,82 80,70 120,157 120,262 0,16 -2,50 -5,103 -1,14 -2,25 -2,33 0,37 7,67 22,91 15,24 48,58 98,101 13,12 20,24 20,37 0,18 -10,33 -30,46 -20,12 -44,18 -73,18 -13,0 -32,-2 -57,-7 -41,-8 -99,-12 -174,-14z"/>
   <path class="fil3 str1" d="M9894 12126c316,0 571,69 765,207 120,84 209,184 268,298 51,100 77,200 77,301 0,221 -99,413 -298,574 -205,167 -480,250 -826,250 -186,0 -359,-31 -519,-93 -215,-83 -375,-210 -478,-382 -66,-111 -99,-227 -99,-347 0,-154 53,-298 160,-431 199,-247 515,-373 950,-377zm9 140l0 0c-127,-4 -239,34 -336,112 -73,59 -130,138 -171,238 -41,100 -62,210 -62,328 0,170 45,322 135,454 45,68 108,123 189,166 67,35 146,53 237,53 126,0 235,-37 327,-112 73,-59 130,-138 172,-239 41,-100 62,-208 62,-324 0,-177 -45,-330 -135,-458 -98,-140 -237,-213 -417,-218zm-7 532l0 0c49,0 91,11 127,34 35,23 53,50 53,82 0,32 -18,59 -53,82 -35,22 -78,34 -128,34 -50,0 -93,-11 -128,-34 -35,-22 -53,-50 -53,-82 0,-32 18,-59 53,-82 35,-22 79,-34 130,-34z"/>
   <path class="fil3" d="M13083 13152l0 160c0,30 7,53 22,69 14,16 40,31 77,43 36,12 54,27 54,44 0,27 -26,56 -79,88 -219,133 -499,200 -838,200 -385,0 -683,-90 -892,-270 -182,-157 -273,-341 -273,-553 0,-222 99,-408 298,-557 127,-97 280,-166 460,-209 114,-27 229,-40 345,-40 146,0 308,22 485,65 55,13 94,19 117,19 35,0 70,-8 106,-24 26,-12 50,-18 70,-18 42,0 82,26 119,79 38,52 57,108 57,165 0,102 -56,190 -167,264 -121,79 -270,119 -447,119 -133,0 -239,-24 -320,-73 -68,-40 -102,-87 -102,-141 0,-39 19,-73 56,-102 37,-29 80,-43 129,-43 26,0 49,5 69,15 20,10 30,22 30,35 0,11 -13,21 -38,32 -42,20 -63,41 -63,64 0,19 12,35 37,48 25,13 54,19 89,19 54,0 99,-13 135,-40 36,-27 54,-60 54,-99 0,-61 -39,-113 -117,-156 -75,-40 -165,-61 -268,-61 -134,0 -260,32 -377,96 -200,109 -300,272 -300,491 0,151 46,273 138,366 66,65 146,116 241,151 86,31 175,47 268,47 50,0 101,-7 151,-20 50,-13 90,-31 120,-52 47,-33 70,-91 70,-171 0,-59 -9,-99 -28,-123 -19,-23 -59,-44 -121,-63 -43,-14 -71,-25 -83,-32 -13,-8 -19,-19 -19,-33 0,-14 8,-27 25,-36 17,-10 38,-15 63,-15 14,0 35,2 63,7 127,22 230,33 311,33 79,0 163,-9 253,-27 56,-11 95,-17 115,-17 26,0 49,5 67,15 19,10 28,22 28,37 0,21 -27,43 -81,66 -43,19 -72,38 -85,56 -14,18 -21,47 -21,86z"/>
   <path class="fil3" d="M15349 13152l0 160c0,30 7,53 22,69 14,16 40,31 77,43 36,12 54,27 54,44 0,27 -26,56 -79,88 -219,133 -499,200 -838,200 -385,0 -683,-90 -892,-270 -182,-157 -273,-341 -273,-553 0,-222 99,-408 298,-557 127,-97 280,-166 460,-209 114,-27 229,-40 345,-40 146,0 308,22 485,65 55,13 94,19 117,19 35,0 70,-8 106,-24 26,-12 50,-18 70,-18 42,0 82,26 119,79 38,52 56,108 56,165 0,102 -56,190 -167,264 -121,79 -270,119 -447,119 -133,0 -239,-24 -320,-73 -68,-40 -102,-87 -102,-141 0,-39 19,-73 56,-102 37,-29 80,-43 129,-43 26,0 49,5 69,15 20,10 30,22 30,35 0,11 -13,21 -38,32 -42,20 -63,41 -63,64 0,19 12,35 37,48 25,13 54,19 89,19 54,0 99,-13 135,-40 36,-27 54,-60 54,-99 0,-61 -39,-113 -117,-156 -75,-40 -165,-61 -268,-61 -134,0 -260,32 -377,96 -200,109 -300,272 -300,491 0,151 46,273 138,366 66,65 146,116 241,151 86,31 175,47 268,47 50,0 101,-7 151,-20 50,-13 90,-31 120,-52 47,-33 70,-91 70,-171 0,-59 -9,-99 -28,-123 -19,-23 -59,-44 -121,-63 -43,-14 -71,-25 -83,-32 -13,-8 -19,-19 -19,-33 0,-14 8,-27 25,-36 17,-10 38,-15 63,-15 14,0 35,2 63,7 127,22 230,33 311,33 79,0 163,-9 253,-27 56,-11 95,-17 115,-17 26,0 49,5 67,15 19,10 28,22 28,37 0,21 -27,43 -81,66 -43,19 -72,38 -85,56 -14,18 -21,47 -21,86z"/>
   <path class="fil3 str2" d="M16415 12651l0 707c0,97 10,159 29,187 19,28 69,54 151,76 45,13 68,29 68,48 0,30 -33,46 -101,46l-783 0c-67,0 -101,-15 -101,-46 0,-12 5,-21 16,-28 11,-6 38,-16 81,-28 66,-18 107,-42 125,-72 17,-30 26,-91 26,-185l0 -706c0,-138 -9,-227 -28,-267 -19,-40 -68,-78 -148,-114 -53,-24 -79,-45 -79,-64 0,-11 7,-22 20,-30 13,-9 28,-13 45,-13 12,0 38,4 77,14 129,30 247,45 352,45 118,0 239,-18 363,-55 19,-5 37,-8 52,-8 22,0 40,5 55,14 15,9 23,20 23,32 0,20 -29,42 -86,67 -71,30 -114,65 -129,103 -16,38 -25,131 -27,277z"/>
   <path class="fil3" d="M18541 13112l0 -461c0,-115 -14,-193 -41,-236 -27,-42 -100,-96 -217,-160 -36,-21 -54,-38 -54,-51 0,-11 6,-20 19,-28 13,-8 27,-12 44,-12 12,0 32,4 59,11 92,27 196,40 311,40 97,0 199,-15 305,-43 37,-9 60,-14 70,-14 16,0 30,5 42,14 13,9 19,19 19,31 0,15 -21,33 -63,55 -102,52 -168,103 -198,153 -31,49 -46,130 -46,241l0 606c-2,55 33,86 108,95 55,8 83,25 83,51 0,17 -18,38 -54,62 -79,52 -124,123 -135,213 -6,52 -40,78 -102,78 -29,0 -50,-4 -64,-11 -14,-8 -42,-30 -85,-69l-1007 -959c18,90 27,196 27,319 0,210 -22,367 -66,470 -35,81 -93,145 -174,193 -63,38 -145,57 -244,57 -99,0 -181,-22 -245,-65 -64,-43 -96,-98 -96,-164 0,-64 32,-117 97,-160 46,-30 89,-46 131,-46 17,0 37,6 59,17 31,15 59,22 83,22 72,0 122,-41 151,-124 34,-93 50,-209 50,-348 0,-209 -36,-366 -108,-469 -39,-57 -112,-104 -217,-141 -42,-15 -68,-25 -78,-32 -10,-7 -15,-17 -15,-30 0,-13 8,-25 23,-35 16,-11 33,-16 52,-16 11,0 26,2 45,7 156,37 282,55 381,55 96,0 197,-14 303,-42 49,-13 83,-19 102,-19 47,0 70,15 70,45 0,17 -19,35 -56,55 -39,21 -59,41 -59,61 0,21 17,47 52,80l740 709z"/>
   <path class="fil3" d="M21080 13152l0 160c0,30 7,53 22,69 14,16 40,31 77,43 36,12 54,27 54,44 0,27 -26,56 -79,88 -219,133 -499,200 -838,200 -385,0 -683,-90 -892,-270 -182,-157 -273,-341 -273,-553 0,-222 99,-408 298,-557 127,-97 280,-166 460,-209 114,-27 229,-40 345,-40 146,0 308,22 485,65 55,13 94,19 117,19 35,0 70,-8 106,-24 26,-12 50,-18 70,-18 42,0 82,26 119,79 38,52 57,108 57,165 0,102 -56,190 -167,264 -121,79 -270,119 -447,119 -133,0 -239,-24 -320,-73 -68,-40 -102,-87 -102,-141 0,-39 19,-73 56,-102 37,-29 80,-43 129,-43 26,0 49,5 69,15 20,10 30,22 30,35 0,11 -12,21 -38,32 -42,20 -63,41 -63,64 0,19 12,35 37,48 25,13 54,19 89,19 54,0 99,-13 135,-40 36,-27 54,-60 54,-99 0,-61 -39,-113 -117,-156 -75,-40 -165,-61 -268,-61 -134,0 -260,32 -377,96 -200,109 -300,272 -300,491 0,151 46,273 138,366 66,65 146,116 241,151 86,31 175,47 268,47 50,0 101,-7 151,-20 50,-13 90,-31 120,-52 47,-33 70,-91 70,-171 0,-59 -9,-99 -28,-123 -19,-23 -59,-44 -121,-63 -43,-14 -71,-25 -83,-32 -13,-8 -19,-19 -19,-33 0,-14 8,-27 25,-36 17,-10 38,-15 63,-15 14,0 35,2 63,7 127,22 230,33 311,33 79,0 163,-9 253,-27 56,-11 95,-17 115,-17 26,0 49,5 67,15 19,10 28,22 28,37 0,21 -27,43 -81,66 -43,19 -72,38 -85,56 -14,18 -21,47 -21,86z"/>
  </g>
 </g>
</svg>
